<svg version="1.1" id="TAO_ICON" xmlns="http://www.w3.org/2000/svg" xmlns:xlink="http://www.w3.org/1999/xlink" x="0px" y="0px"
	 width="100%" viewBox="34 31 65 68" enable-background="new 34 31 65 68" xml:space="preserve">
<path fill="#000000" opacity="1.000000" stroke="none" 
	d="
M64.930435,42.798397 
	C72.983955,47.892101 73.631615,55.695770 73.192345,64.194031 
	C72.805817,71.671715 73.056145,79.187973 73.182579,86.684540 
	C73.267426,91.715424 74.137550,96.423576 81.112167,97.727417 
	C75.846626,100.923660 71.252769,100.890404 66.711075,98.824707 
	C61.933975,96.651947 60.109058,92.486832 60.101158,87.433792 
	C60.078487,72.936729 60.084942,58.439632 60.256149,43.208668 
	C61.931713,42.582657 63.431076,42.690529 64.930435,42.798397 
z"/>
<path fill="#000000" opacity="1.000000" stroke="none" 
	d="
M65.400024,42.859028 
	C63.431076,42.690529 61.931713,42.582657 60.214119,42.742264 
	C51.508366,43.009743 43.020847,43.009743 34.544506,43.009743 
	C34.388176,36.567326 38.259052,31.295128 44.250370,31.184084 
	C62.202404,30.851355 80.164551,31.064369 98.141113,31.064369 
	C97.682327,38.403530 93.518814,42.632549 86.364304,42.854527 
	C79.538628,43.066292 72.701630,42.912659 65.400024,42.859028 
z"/>
</svg>