<svg width="7" height="5" viewBox="0 0 7 5" fill="none" xmlns="http://www.w3.org/2000/svg">
<path d="M6.65691 0.455078C6.6579 0.526241 6.64796 0.597066 6.62749 0.664457C6.59641 0.773882 6.54104 0.872716 6.46657 0.951736C6.3921 1.03076 6.30095 1.08738 6.20162 1.11634C6.14845 1.13249 6.09351 1.14022 6.03843 1.13929H4.72209V1.13778C4.76931 1.14627 4.81609 1.15754 4.86224 1.17155C4.97531 1.2075 5.07771 1.27667 5.1588 1.37186C5.23989 1.46705 5.29671 1.5848 5.32335 1.71286C5.33652 1.77241 5.34264 1.83363 5.34154 1.89496C5.34154 2.43655 5.34154 2.97786 5.34154 3.51888C5.33993 3.62888 5.34719 3.73881 5.36323 3.84735C5.37326 3.92168 5.3972 3.9928 5.43349 4.05608C5.48369 4.13595 5.55873 4.192 5.64392 4.21327C5.68263 4.22475 5.72134 4.23168 5.76258 4.2412L5.75076 4.25116C5.65641 4.32508 5.54631 4.36989 5.43155 4.38108C5.30496 4.39812 5.17656 4.3812 5.05698 4.33171C4.92193 4.27745 4.80943 4.16957 4.74086 4.02858C4.69223 3.92139 4.66841 3.80228 4.67157 3.68214V1.13929H3.31458C3.3169 1.10573 3.31767 1.07434 3.32192 1.04251C3.3343 0.944162 3.36583 0.850052 3.41426 0.766813C3.46269 0.683573 3.52685 0.613229 3.60223 0.560741C3.68445 0.500847 3.77902 0.465514 3.87692 0.458109C3.89802 0.456377 3.91912 0.455295 3.94022 0.455295L6.65691 0.455078Z" fill="currentColor"/>
<path d="M2.29429 1.16927C2.43704 1.18686 2.57096 1.25527 2.67631 1.36442C2.78167 1.47357 2.85289 1.61769 2.87949 1.77554C2.88723 1.82487 2.89118 1.87485 2.89129 1.92494C2.89129 2.47859 2.8913 3.03245 2.89246 3.58589C2.89017 3.70411 2.90043 3.82222 2.92304 3.93774C2.93874 4.02789 2.98002 4.10997 3.04074 4.1718C3.09626 4.22187 3.16229 4.25525 3.23257 4.2688C3.25309 4.27378 3.2742 4.27638 3.29472 4.28028L3.31407 4.28483C3.30942 4.28959 3.30729 4.29262 3.30458 4.29479C3.213 4.36934 3.10527 4.41517 2.99253 4.42751C2.92617 4.43673 2.8591 4.43753 2.79257 4.4299C2.68904 4.422 2.58886 4.38551 2.50102 4.32369C2.41319 4.26187 2.34043 4.17665 2.28926 4.07566C2.24981 3.99423 2.22707 3.90399 2.22267 3.81151C2.22035 3.77318 2.21958 3.73421 2.21939 3.69588V1.19612C2.21939 1.16451 2.22209 1.16776 2.19344 1.16776H0.892782C0.867617 1.16776 0.86684 1.16776 0.868195 1.13918C0.871695 1.03009 0.898431 0.92351 0.946175 0.828305C0.993918 0.7331 1.06129 0.652021 1.1427 0.591807C1.2421 0.515147 1.36033 0.474896 1.48107 0.476615C1.94437 0.476615 2.40767 0.476615 2.87097 0.476615C2.89362 0.476615 2.8942 0.476616 2.89343 0.50195C2.88841 0.661033 2.83445 0.813303 2.74067 0.933033C2.64689 1.05276 2.51903 1.13262 2.3787 1.1591C2.34831 1.16473 2.31753 1.16624 2.29256 1.16906L2.29429 1.16927Z" fill="currentColor"/>
</svg>